<svg width="40" height="41" viewBox="0 0 40 41" fill="none" xmlns="http://www.w3.org/2000/svg">
<path d="M0.87868 35.0208C-0.292893 36.1923 -0.292893 38.0918 0.87868 39.2634C2.05025 40.435 3.94975 40.435 5.12132 39.2634L0.87868 35.0208ZM40 3.14209C40 1.48523 38.6569 0.142089 37 0.142089H10C8.34315 0.142089 7 1.48523 7 3.14209C7 4.79894 8.34315 6.14209 10 6.14209H34V30.1421C34 31.7989 35.3431 33.1421 37 33.1421C38.6569 33.1421 40 31.7989 40 30.1421V3.14209ZM5.12132 39.2634L39.1213 5.26341L34.8787 1.02077L0.87868 35.0208L5.12132 39.2634Z" fill="white"/>
</svg>
