<svg width="22" height="14" viewBox="0 0 22 14" fill="none" xmlns="http://www.w3.org/2000/svg">
<g clip-path="url(#clip0_272_233)">
<path d="M8.87903 6.259C8.87903 6.259 10.9606 6.1037 10.9606 3.65057C10.9606 1.19726 9.25761 0 7.10042 0H0.00195312V13.7094H7.10042C7.10042 13.7094 11.4338 13.847 11.4338 9.66303C11.4338 9.66308 11.6227 6.259 8.87903 6.259ZM6.58948 2.4367H7.10042C7.10042 2.4367 8.06531 2.4367 8.06531 3.8631C8.06531 5.28933 7.49785 5.49612 6.8542 5.49612H3.12963V2.4367H6.58948ZM6.89983 11.2728H3.12963V7.60914H7.10042C7.10042 7.60914 8.53855 7.59019 8.53855 9.4919C8.53855 11.0955 7.46441 11.2607 6.89983 11.2728ZM17.2131 3.48808C11.9671 3.48808 11.9717 8.75566 11.9717 8.75566C11.9717 8.75566 11.6118 13.9962 17.2131 13.9962C17.2131 13.9962 21.8807 14.2642 21.8807 10.3506H19.4802C19.4802 10.3506 19.5603 11.8244 17.2931 11.8244C17.2931 11.8244 14.8922 11.9861 14.8922 9.43929H21.9608C21.9608 9.43925 22.7342 3.48808 17.2131 3.48808ZM14.8658 7.60914C14.8658 7.60914 15.159 5.49607 17.2664 5.49607C19.3734 5.49607 19.347 7.60914 19.347 7.60914H14.8658ZM19.9062 2.49588H14.2781V0.807661H19.9062V2.49588Z" fill="black"/>
</g>
<defs>
<clipPath id="clip0_272_233">
<rect width="22" height="14" fill="white"/>
</clipPath>
</defs>
</svg>
