<svg width="24" height="24" viewBox="0 0 24 24" fill="none" xmlns="http://www.w3.org/2000/svg">
<path fill-rule="evenodd" clip-rule="evenodd" d="M15 1H7C5.34315 1 4 2.34315 4 4V20C4 21.6569 5.34315 23 7 23H17C18.6569 23 20 21.6569 20 20V6L18.1922 6.51651C18.128 6.53486 18.0639 6.551 18 6.565C15.8765 7.03019 13.9698 5.12349 14.435 3C14.449 2.9361 14.4651 2.872 14.4835 2.80777L15 1ZM12.4055 3H7C6.44772 3 6 3.44772 6 4V20C6 20.5523 6.44772 21 7 21H17C17.5523 21 18 20.5523 18 20V8.59448C14.7748 9.02319 11.9768 6.22523 12.4055 3Z" fill="white"/>
</svg>
