<svg width="24" height="24" viewBox="0 0 24 24" fill="none" xmlns="http://www.w3.org/2000/svg">
<path fill-rule="evenodd" clip-rule="evenodd" d="M6 22H18C18.5523 22 19 21.5523 19 21V3C19 2.44772 18.5523 2 18 2H6C5.44772 2 5 2.44772 5 3V21C5 21.5523 5.44772 22 6 22ZM18 24H6C4.34315 24 3 22.6569 3 21V3C3 1.34315 4.34315 0 6 0H18C19.6569 0 21 1.34315 21 3V21C21 22.6569 19.6569 24 18 24Z" fill="white"/>
<path d="M14.8354 10.072C14.6327 10.072 14.4674 10.0293 14.3394 9.944C14.2167 9.85866 14.1127 9.72267 14.0274 9.536L12.0914 5.264C12.006 5.07733 11.9794 4.90933 12.0114 4.76C12.0434 4.61067 12.118 4.496 12.2354 4.416C12.3527 4.33066 12.4994 4.288 12.6754 4.288C12.894 4.288 13.0567 4.336 13.1634 4.432C13.2754 4.528 13.3714 4.66933 13.4514 4.856L15.0834 8.632H14.6354L16.2674 4.848C16.3474 4.66133 16.4434 4.52267 16.5554 4.432C16.6674 4.336 16.8247 4.288 17.0274 4.288C17.1927 4.288 17.3314 4.33066 17.4434 4.416C17.5554 4.496 17.6247 4.61067 17.6514 4.76C17.6834 4.90933 17.6567 5.07733 17.5714 5.264L15.6274 9.536C15.5474 9.72267 15.446 9.85866 15.3234 9.944C15.2007 10.0293 15.038 10.072 14.8354 10.072Z" fill="white"/>
<path d="M9.36004 10.088C8.73604 10.088 8.20004 9.968 7.75204 9.728C7.30404 9.488 6.96004 9.14933 6.72004 8.712C6.48538 8.27467 6.36804 7.76267 6.36804 7.176C6.36804 6.73867 6.43471 6.34133 6.56804 5.984C6.70671 5.62667 6.90404 5.32 7.16004 5.064C7.42138 4.808 7.73604 4.61333 8.10404 4.48C8.47738 4.34133 8.89604 4.272 9.36004 4.272C9.60538 4.272 9.85871 4.30133 10.12 4.36C10.3867 4.41333 10.6214 4.496 10.824 4.608C10.9734 4.688 11.0774 4.78933 11.136 4.912C11.1947 5.03467 11.2134 5.16 11.192 5.288C11.176 5.416 11.1307 5.53067 11.056 5.632C10.9814 5.73333 10.8854 5.80267 10.768 5.84C10.6507 5.872 10.5227 5.85333 10.384 5.784C10.224 5.70933 10.064 5.65333 9.90404 5.616C9.74938 5.57333 9.58671 5.552 9.41604 5.552C9.08538 5.552 8.80804 5.616 8.58404 5.744C8.36538 5.86667 8.20004 6.048 8.08804 6.288C7.97604 6.528 7.92004 6.824 7.92004 7.176C7.92004 7.528 7.97604 7.82667 8.08804 8.072C8.20004 8.312 8.36538 8.496 8.58404 8.624C8.80804 8.74667 9.08538 8.808 9.41604 8.808C9.55471 8.808 9.70404 8.792 9.86404 8.76C10.024 8.72267 10.1814 8.66667 10.336 8.592C10.496 8.52267 10.6374 8.504 10.76 8.536C10.888 8.568 10.9894 8.632 11.064 8.728C11.144 8.824 11.1947 8.936 11.216 9.064C11.2374 9.18667 11.2187 9.30933 11.16 9.432C11.1067 9.55467 11.0107 9.65333 10.872 9.728C10.6854 9.84 10.4534 9.928 10.176 9.992C9.90404 10.056 9.63204 10.088 9.36004 10.088Z" fill="white"/>
<path fill-rule="evenodd" clip-rule="evenodd" d="M17.5 13.75H6.5V12.25H17.5V13.75Z" fill="white"/>
<path fill-rule="evenodd" clip-rule="evenodd" d="M17.5 16.75H6.5V15.25H17.5V16.75Z" fill="white"/>
<path fill-rule="evenodd" clip-rule="evenodd" d="M17.5 19.75H6.5V18.25H17.5V19.75Z" fill="white"/>
</svg>
