<svg width="24" height="24" viewBox="0 0 24 24" fill="none" xmlns="http://www.w3.org/2000/svg">
<path fill-rule="evenodd" clip-rule="evenodd" d="M16.7285 21.9084C17.1379 21.3625 17.4688 20.7635 17.7117 20.1284C18.1206 19.0045 17.9734 18.1504 17.6976 16.5498C17.5449 15.6634 17.3527 14.548 17.1937 13.0309C17.0726 11.8431 17.031 10.9829 17.3827 9.98119C17.6455 9.23718 18.0643 8.55589 18.6117 7.98153C19.3032 7.26161 19.9672 6.97148 20.5936 6.69779C21.2827 6.39673 21.9261 6.11558 22.5105 5.30415C23.0286 4.59663 23.0248 4.1051 22.9832 3.85188C22.8809 3.39984 22.6113 3.00155 22.2269 2.73475C21.4819 2.19109 19.9353 2.24694 19.9353 2.24694C19.9353 2.24694 18.4453 0.701582 17.3109 0.61966C16.2294 0.537737 14.8642 1.22291 14.8642 1.22291C14.5135 0.820085 14.0937 0.481038 13.6239 0.221217C12.5651 -0.303833 11.1092 0.176531 10.2545 0.921283C10.0012 1.14098 9.28646 1.76658 9.35075 2.53367C9.39383 3.01663 9.73312 3.33659 10.0989 3.68149C10.1505 3.73017 10.2026 3.77934 10.2545 3.82954C11.7293 5.25946 12.4554 7.09155 12.2777 7.23306C12.0999 7.37456 10.3566 6.06752 9.01419 4.31735C8.80098 3.93805 8.48733 3.62276 8.10663 3.40503C7.15368 2.98424 5.8188 3.44972 5.06249 4.2466C4.51536 4.77852 4.20175 5.50043 4.18896 6.25743C4.22299 6.8011 4.25702 7.43414 4.25702 7.43414C3.87762 7.51446 3.50942 7.63948 3.16038 7.80651C2.7588 8.05008 2.45441 8.42212 2.29819 8.86034C1.81416 9.91044 2.08264 11.5638 2.08264 11.5638C2.08264 11.5638 1.18642 12.6995 1.03138 13.6193C0.830955 14.8035 1.61373 16.4456 2.72172 16.7733C3.49045 17.0006 4.06953 16.4953 4.83777 15.825C5.6303 15.1334 6.62415 14.2662 8.2352 13.8464C10.0919 13.3624 12.618 13.5076 13.8735 14.8221C14.607 15.5721 15.1206 16.5037 15.3596 17.5181C15.483 18.1168 15.4688 18.7352 15.318 19.3278C15.1853 19.8365 14.9598 20.3173 14.6525 20.7466C14.3734 21.1428 14.0341 21.4945 13.6466 21.7892C13.4916 21.9046 13.3176 21.9927 13.1323 22.0499C12.9371 22.1204 12.7248 22.1308 12.5235 22.0797C12.4476 22.062 12.3758 22.0304 12.3117 21.9866C12.2216 21.9264 12.1444 21.8492 12.0848 21.7594C12.0061 21.6563 11.9436 21.5421 11.8995 21.4206C11.8679 21.3362 11.8451 21.2488 11.8314 21.1599C11.7925 20.9385 11.7722 20.7143 11.7709 20.4896V20.0242C11.7979 19.6664 11.8549 19.3114 11.9411 18.9629C11.9428 18.9562 11.9448 18.9482 11.9471 18.9389C11.9601 18.8867 11.9837 18.7916 12.0319 18.624C12.0823 18.4485 12.1298 18.3172 12.1981 18.1279L12.2247 18.0543C12.2536 17.9691 12.2668 17.9339 12.2881 17.8772C12.303 17.8373 12.322 17.7867 12.3533 17.7005C12.4213 17.5051 12.4506 17.4185 12.4653 17.3752C12.4799 17.332 12.48 17.3319 12.4894 17.3095C12.5995 17.0537 12.7258 16.805 12.8676 16.5648C12.8738 16.5505 12.8811 16.5348 12.8888 16.5183C12.9371 16.4147 13.001 16.2778 12.913 16.2297C12.8823 16.2197 12.8491 16.2197 12.8184 16.2297C12.7495 16.2404 12.6737 16.3298 12.4309 16.6162L12.3987 16.6542C12.0321 17.0878 11.7091 17.5554 11.4344 18.0506C11.1658 18.5343 10.9539 19.0465 10.8029 19.5773C10.659 20.0702 10.5839 20.5801 10.5797 21.0929C10.5503 21.8249 10.7728 22.5453 11.2113 23.1372C11.3979 23.4001 11.6455 23.6153 11.9336 23.7649C12.2217 23.9145 12.5419 23.9942 12.8676 23.9974C13.6721 24.0267 14.4657 23.8066 15.1365 23.3681C15.755 22.9835 16.2949 22.4885 16.7285 21.9084ZM15.6203 8.94238C15.3178 11.4187 16.5997 13.8689 16.5997 13.8689C16.1989 11.9623 16.1346 10.5883 16.9589 9.05037C17.9377 7.23291 19.2868 6.61093 20.3964 6.09937C20.976 5.83217 21.4903 5.59509 21.8523 5.23351C22.9073 4.17969 21.2661 2.66784 19.3564 3.43494C17.4468 4.20203 15.9228 6.46608 15.6203 8.94238Z" fill="white"/>
</svg>
