<svg width="43" height="76" viewBox="0 0 43 76" fill="none" xmlns="http://www.w3.org/2000/svg">
<path d="M32.7938 75.0141C21.1124 63.6115 11.9863 38.5993 11.9863 35.2889C11.9863 32.6406 8.82256 25.1124 7.24071 21.6793C1.69204 15.2056 0.791601 12.6063 1.03496 12.1159L7.24071 19.1046C0.231864 9.68822 0.913279 8.56022 2.13009 9.17326L8.70088 17.2654C1.10797 6.9663 1.15664 4.39152 2.13009 4.39152L10.1611 15.0585C3.73629 5.71716 4.56371 4.05496 5.78053 4.39152L11.9863 13.955C7.94631 6.89274 9.08615 6.35326 10.1611 6.9663L16.0018 17.2654C18.8938 20.7572 24.0402 27.7752 28.0447 35.2889M32.7938 46.636C31.7902 42.9862 30.0624 39.0746 28.0447 35.2889M28.0447 35.2889C31.1212 32.9374 38.2311 22.7875 42.0586 1" stroke="#293244"/>
</svg>
