<svg width="12" height="11" viewBox="0 0 12 11" fill="none" xmlns="http://www.w3.org/2000/svg">
<path d="M0.666504 0.988572C0.666504 0.455242 1.12364 0.0476227 1.80935 0.0476227C2.49507 0.0476227 2.92554 0.455242 2.95221 0.988572C2.95221 1.5219 2.52554 1.95238 1.80935 1.95238C1.12364 1.95238 0.666504 1.5219 0.666504 0.988572Z" fill="#283747"/>
<path d="M2.95221 3.09524V10.3333H0.666504V3.09524H2.95221Z" fill="#283747"/>
<path d="M11.3331 10.3333H9.04743V6.52381C9.04743 5.7619 8.66653 5 7.71412 4.98476H7.68364C6.76173 4.98476 6.38078 5.76952 6.38078 6.52381V10.3333H4.09507V3.09524H6.38078V4.07048C6.38078 4.07048 7.11602 3.09524 8.59413 3.09524C10.1065 3.09524 11.3331 4.13524 11.3331 6.24191V10.3333Z" fill="#283747"/>
</svg>
