<svg width="24" height="24" viewBox="0 0 24 24" fill="none" xmlns="http://www.w3.org/2000/svg">
<path fill-rule="evenodd" clip-rule="evenodd" d="M23 23H18.4797V15.3009C18.4797 13.19 17.6776 12.0104 16.0068 12.0104C14.1893 12.0104 13.2396 13.238 13.2396 15.3009V23H8.88333V8.33333H13.2396V10.3089C13.2396 10.3089 14.5495 7.88525 17.6618 7.88525C20.7728 7.88525 23 9.78497 23 13.714V23ZM3.68626 6.41285C2.20241 6.41285 1 5.20101 1 3.70643C1 2.21184 2.20241 1 3.68626 1C5.17012 1 6.37181 2.21184 6.37181 3.70643C6.37181 5.20101 5.17012 6.41285 3.68626 6.41285ZM1.43685 23H5.97936V8.33333H1.43685V23Z" fill="white"/>
</svg>
