<svg width="18" height="18" viewBox="0 0 18 18" fill="none" xmlns="http://www.w3.org/2000/svg">
<g clip-path="url(#clip0_272_235)">
<path d="M17.3263 0.000488281H0.673443C0.301472 0.000488281 0 0.30196 0 0.673931V17.3268C0 17.6988 0.301472 18.0003 0.673443 18.0003H17.3266C17.6986 18.0003 18 17.6988 18 17.3268V0.673931C17.9998 0.30196 17.6983 0.000488281 17.3263 0.000488281ZM4.78214 14.812C4.78214 15.06 4.58121 15.2609 4.33318 15.2609H2.53575C2.28795 15.2609 2.08679 15.06 2.08679 14.812V6.9558C2.08679 6.70774 2.28795 6.50684 2.53575 6.50684H4.33318C4.58121 6.50684 4.78214 6.70774 4.78214 6.9558V14.812ZM4.78214 4.6764C4.78214 4.92447 4.58121 5.12537 4.33318 5.12537H2.53575C2.28795 5.12537 2.08679 4.92443 2.08679 4.6764V3.08035C2.08679 2.83229 2.28795 2.63139 2.53575 2.63139H4.33318C4.58121 2.63139 4.78214 2.83229 4.78214 3.08035V4.6764ZM15.913 14.812C15.913 15.06 15.7119 15.2609 15.4641 15.2609H13.6666C13.4186 15.2609 13.2177 15.06 13.2177 14.812V11.4948C13.2177 10.3949 13.1602 9.68347 13.0448 9.36046C12.9297 9.03742 12.7427 8.78646 12.4836 8.60757C12.2246 8.42843 11.913 8.33908 11.5484 8.33908C11.0815 8.33908 10.6627 8.46702 10.2918 8.72271C9.92096 8.97863 9.66684 9.31733 9.52922 9.73937C9.39185 10.1614 9.32315 10.9417 9.32315 12.0798V14.812C9.32315 15.06 9.12203 15.2609 8.87419 15.2609H7.07676C6.82895 15.2609 6.6278 15.06 6.6278 14.812V6.9558C6.6278 6.70774 6.82892 6.50684 7.07676 6.50684H8.68228C8.93034 6.50684 9.13124 6.70774 9.13124 6.9558V7.55427C9.13124 7.80234 9.25272 7.84228 9.41947 7.65888C10.2581 6.73737 11.2811 6.27653 12.4886 6.27653C13.0832 6.27653 13.6267 6.3836 14.1192 6.59777C14.6115 6.81191 14.9841 7.08532 15.2367 7.41779C15.4892 7.75022 15.6652 8.12758 15.7642 8.54962C15.8632 8.97162 15.9131 9.57592 15.9131 10.3626V14.812H15.913Z" fill="black"/>
</g>
<defs>
<clipPath id="clip0_272_235">
<rect width="18" height="18" fill="white"/>
</clipPath>
</defs>
</svg>
